#!OML:ASF H:\Punching\Project 1\Capture day 1\Session 1\female.ASF
:FULLY-SPECIFIED
:DEGREES
730
root -1.34657 14.8524 6.53194 16.1727 -11.2606 1.57309
lowerback -1.11579 -2.90105 -2.45539
upperback -4.93465 -3.97661 -0.989641
thorax -4.37059 -1.91818 0.454508
lowerneck -4.69189 5.14423 14.6925
upperneck 33.5895 5.44361 -2.52791
head 12.4927 3.85831 -2.87705
rclavicle -3.15074e-014 -2.70347e-014
rhumerus 9.56031 25.8011 -80.7888
rradius 134.751
rwrist -42.5923
rhand -18.1508 -3.95222
rfingers 7.12502
rthumb 8.12481 -33.776
lclavicle -3.15074e-014 -2.70347e-014
lhumerus 14.4375 -13.3498 74.944
lradius 113.587
lwrist 31.7449
lhand -12.9518 35.9543
lfingers 7.12502
lthumb 13.1397 65.5203
rfemur -52.4252 12.3871 7.06994
rtibia 50.0809
rfoot -13.8767 -4.16523
rtoes -2.88627
lfemur 15.1881 9.07618 -6.76571
ltibia -9.54166e-015
lfoot -10.9374 -2.71698
ltoes -30.1663
731
root -1.35826 14.8675 6.53256 16.0849 -8.91418 1.74613
lowerback -0.924922 -2.76679 -2.0627
upperback -4.94159 -3.78391 -0.721986
thorax -4.49563 -1.82849 0.518163
lowerneck -5.11407 4.37628 13.6479
upperneck 33.7992 4.33097 -2.08996
head 12.4885 3.30211 -2.66945
rclavicle 1.80894e-014 -3.97569e-016
rhumerus 9.41249 25.0201 -80.1974
rradius 135.033
rwrist -42.9666
rhand -18.0484 -3.95442
rfingers 7.12502
rthumb 8.22358 -33.7744
lclavicle 1.80894e-014 -3.97569e-016
lhumerus 13.1895 -15.5454 75.9369
lradius 116.987
lwrist 31.6352
lhand -12.7819 35.5112
lfingers 7.12502
lthumb 13.3035 65.0666
rfemur -51.4775 11.0457 7.20335
rtibia 50.1336
rfoot -14.4005 -4.86096
rtoes -2.98006
lfemur 14.3268 6.81865 -6.67163
ltibia -1.90833e-014
lfoot -10.6343 -1.78795
ltoes -30.1476
732
root -1.36926 14.8824 6.53465 15.9808 -6.53106 1.87442
lowerback -0.754127 -2.63133 -1.59348
upperback -4.95295 -3.58571 -0.459036
thorax -4.61862 -1.73981 0.532191
lowerneck -5.42987 3.58207 12.622
upperneck 33.934 3.20068 -1.64802
head 12.4517 2.73958 -2.4633
rclavicle 6.65929e-015 -1.37161e-014
rhumerus 9.20828 24.1978 -79.6245
rradius 135.349
rwrist -43.1631
rhand -17.9829 -4.00245
rfingers 7.12502
rthumb 8.28687 -33.8199
lclavicle 6.65929e-015 -1.37161e-014
lhumerus 12.1087 -17.8152 76.8477
lradius 120.089
lwrist 31.2161
lhand -12.5524 35.033
lfingers 7.12502
lthumb 13.5247 64.5737
rfemur -50.4655 9.63674 7.42626
rtibia 50.1578
rfoot -14.9172 -5.51343
rtoes -3.05252
lfemur 13.492 4.52739 -6.50815
ltibia 1.27222e-014
lfoot -10.3347 -0.793909
ltoes -30.1509
733
root -1.37932 14.897 6.53822 15.8491 -4.1402 1.95987
lowerback -0.597726 -2.49329 -1.05866
upperback -4.97545 -3.38037 -0.200285
thorax -4.74852 -1.65088 0.503594
lowerneck -5.61888 2.76798 11.6212
upperneck 33.9958 2.06475 -1.21371
head 12.3803 2.17493 -2.26233
rclavicle -4.72238e-014 -3.27001e-014
rhumerus 8.94357 23.3374 -79.0795
rradius 135.688
rwrist -43.2464
rhand -17.9713 -4.10519
rfingers 7.12502
rthumb 8.29808 -33.9222
lclavicle -4.72238e-014 -3.27001e-014
lhumerus 11.162 -20.1055 77.6973
lradius 122.91
lwrist 30.5021
lhand -12.205 34.5225
lfingers 7.12502
lthumb 13.8594 64.0407
rfemur -49.3964 8.19641 7.71761
rtibia 50.1499
rfoot -15.4155 -6.13058
rtoes -3.13108
lfemur 12.7017 2.22698 -6.28413
ltibia -6.36111e-015
lfoot -10.0406 0.259757
ltoes -30.1364
734
root -1.38887 14.9113 6.54294 15.6891 -1.7605 2.00537
lowerback -0.467147 -2.35993 -0.482349
upperback -4.997 -3.17744 0.0591555
thorax -4.86384 -1.56566 0.450244
lowerneck -5.69886 1.95407 10.6511
upperneck 33.9811 0.949873 -0.798908
head 12.2779 1.6184 -2.06808
rclavicle -4.20212e-014 3.72721e-015
rhumerus 8.66931 22.4467 -78.5644
rradius 136.022
rwrist -43.2922
rhand -17.9982 -4.193
rfingers 7.12502
rthumb 8.27207 -34.0111
lclavicle -4.20212e-014 3.72721e-015
lhumerus 10.3529 -22.3458 78.4801
lradius 125.47
lwrist 29.5541
lhand -11.742 33.992
lfingers 7.12502
lthumb 14.3056 63.4792
rfemur -48.2872 6.76994 8.05168
rtibia 50.1096
rfoot -15.8865 -6.73799
rtoes -3.19646
lfemur 11.9575 -0.0657838 -6.00473
ltibia -2.22639e-014
lfoot -9.75175 1.36079
ltoes -30.1155
735
root -1.39746 14.9249 6.54881 15.4804 0.555019 2.01429
lowerback -0.336839 -2.22188 0.112051
upperback -5.02537 -2.96531 0.319515
thorax -4.98579 -1.47719 0.386553
lowerneck -5.67378 1.14624 9.71197
upperneck 33.9184 -0.138437 -0.406779
head 12.1566 1.07243 -1.88101
rclavicle 3.25758e-014 7.35503e-015
rhumerus 8.36561 21.5481 -78.0915
rradius 136.344
rwrist -43.3281
rhand -18.0683 -4.28872
rfingers 7.12502
rthumb 8.20441 -34.1094
lclavicle 3.25758e-014 7.35503e-015
lhumerus 9.6194 -24.5112 79.2174
lradius 127.805
lwrist 28.4209
lhand -11.2171 33.4718
lfingers 7.12502
lthumb 14.8113 62.9225
rfemur -47.1419 5.42245 8.40125
rtibia 50.0411
rfoot -16.3257 -7.35283
rtoes -3.25289
lfemur 11.2966 -2.30708 -5.68806
ltibia 2.8625e-014
lfoot -9.47668 2.48426
ltoes -30.088
736
root -1.40525 14.9374 6.5553 15.2282 2.76241 1.99454
lowerback -0.204724 -2.08599 0.681216
upperback -5.04725 -2.75361 0.592413
thorax -5.09866 -1.38819 0.348745
lowerneck -5.60419 0.372613 8.79231
upperneck 33.8249 -1.16685 -0.0404653
head 12.0361 0.550406 -1.69671
rclavicle -1.07095e-014 -6.75868e-015
rhumerus 8.0997 20.6694 -77.6469
rradius 136.628
rwrist -43.4028
rhand -18.1269 -4.34305
rfingers 7.12502
rthumb 8.14783 -34.166
lclavicle -1.07095e-014 -6.75868e-015
lhumerus 8.9731 -26.5437 79.8939
lradius 129.934
lwrist 27.1799
lhand -10.713 32.9973
lfingers 7.12502
lthumb 15.2969 62.4116
rfemur -45.994 4.21422 8.7354
rtibia 49.9559
rfoot -16.7252 -7.99908
rtoes -3.27174
lfemur 8.05806 -4.40005 -5.608
ltibia 5.35385
lfoot -11.89 3.47676
ltoes -30.0238
737
root -1.41186 14.948 6.56215 14.935 4.80264 1.96694
lowerback -0.0422531 -1.94042 1.18963
upperback -5.07785 -2.52748 0.867482
thorax -5.23381 -1.28984 0.346923
lowerneck -5.50804 -0.361577 7.89483
upperneck 33.7327 -2.13529 0.306744
head 11.9313 0.0547033 -1.51417
rclavicle -1.41137e-014 -4.37326e-015
rhumerus 7.84084 19.8247 -77.2442
rradius 136.878
rwrist -43.5164
rhand -18.1643 -4.42354
rfingers 7.12502
rthumb 8.11178 -34.2478
lclavicle -1.41137e-014 -4.37326e-015
lhumerus 8.38692 -28.4426 80.5101
lradius 131.871
lwrist 25.9174
lhand -10.3153 32.6178
lfingers 7.12502
lthumb 15.68 62.0024
rfemur -44.8735 3.19337 9.01717
rtibia 49.872
rfoot -17.0819 -8.68142
rtoes -3.25667
lfemur 6.57996 -6.41053 -5.28031
ltibia 7.38574
lfoot -12.6781 4.49095
ltoes -29.9521
738
root -1.41715 14.9561 6.56928 14.6162 6.62457 1.94892
lowerback 0.12994 -1.78181 1.59989
upperback -5.10329 -2.284 1.14147
thorax -5.36384 -1.17906 0.397044
lowerneck -5.41978 -1.04114 7.01843
upperneck 33.6496 -3.02857 0.640477
head 11.8508 -0.406819 -1.33066
rclavicle 2.78299e-015 -3.97569e-015
rhumerus 7.62315 19.0323 -76.8777
rradius 137.084
rwrist -43.6673
rhand -18.1625 -4.51992
rfingers 7.12502
rthumb 8.11348 -34.3442
lclavicle 2.78299e-015 -3.97569e-015
lhumerus 7.89677 -30.1941 81.0367
lradius 133.626
lwrist 24.7094
lhand -10.08 32.3741
lfingers 7.12502
lthumb 15.9066 61.7409
rfemur -43.8203 2.39176 9.22189
rtibia 49.8111
rfoot -17.3952 -9.3988
rtoes -3.20907
lfemur 5.56212 -8.24224 -4.94719
ltibia 8.70199
lfoot -13.1528 5.4295
ltoes -29.8443
